<?xml version="1.0" encoding="UTF-8"?>
<!DOCTYPE svg PUBLIC "-//W3C//DTD SVG 1.1//EN" "http://www.w3.org/Graphics/SVG/1.1/DTD/svg11.dtd">
<svg version="1.1" xmlns="http://www.w3.org/2000/svg" xmlns:xlink="http://www.w3.org/1999/xlink" x="0" y="0" width="75.767" height="76.248" viewBox="0, 0, 75.767, 76.248">
  <g id="Layer_1">
    <path d="M70.168,0 C73.26,0 75.767,2.446 75.767,5.462 L75.767,70.786 C75.767,73.803 73.26,76.248 70.168,76.248 L5.599,76.248 C2.507,76.248 0,73.803 0,70.786 L0,5.462 C0,2.446 2.507,0 5.599,0 L70.168,0 z M51.057,28.589 C46.67,28.492 43.153,30.718 40.744,34.278 L40.744,29.397 L29.3,29.397 C29.45,32.628 29.3,63.827 29.3,63.827 L40.744,63.827 L40.744,44.6 C40.744,43.571 40.818,42.543 41.12,41.808 C41.947,39.752 43.83,37.622 46.992,37.622 C51.133,37.622 52.789,40.78 52.789,45.408 L52.789,63.827 L64.232,63.827 L64.232,44.086 C64.232,33.51 58.587,28.589 51.057,28.589 z M22.967,29.397 L11.523,29.397 L11.523,63.827 L22.967,63.827 L22.967,29.397 z M17.321,12.8 C13.406,12.8 10.847,15.37 10.847,18.748 C10.847,22.053 13.33,24.696 17.171,24.696 L17.245,24.696 C21.236,24.696 23.72,22.053 23.72,18.748 C23.646,15.37 21.236,12.8 17.321,12.8 z" fill="#FFFFFF"/>
  </g>
</svg>
