<?xml version="1.0" standalone="no"?>
<!DOCTYPE svg PUBLIC "-//W3C//DTD SVG 20010904//EN"
 "http://www.w3.org/TR/2001/REC-SVG-20010904/DTD/svg10.dtd">
<svg version="1.0" xmlns="http://www.w3.org/2000/svg"
 width="700.000000pt" height="700.000000pt" viewBox="0 0 700.000000 700.000000"
 preserveAspectRatio="xMidYMid meet">
<metadata>
Created by potrace 1.11, written by Peter Selinger 2001-2013
</metadata>
<g transform="translate(0.000000,700.000000) scale(0.100000,-0.100000)"
fill="#000000" stroke="none">
<path d="M887 6563 c-1 0 -24 -4 -52 -7 -186 -20 -343 -159 -386 -341 -8 -37
-11 -559 -12 -2040 0 -1094 3 -2013 6 -2041 13 -104 51 -178 129 -256 86 -86
196 -129 312 -124 213 11 387 164 422 371 2 11 4 817 5 1791 l2 1771 461 1
c389 0 471 2 522 16 194 50 328 224 326 420 -2 208 -138 378 -342 426 -41 10
-215 13 -723 14 -368 1 -669 0 -670 -1z"/>
<path d="M3373 6536 c-139 -45 -235 -137 -286 -275 -20 -54 -21 -76 -23 -751
-1 -382 2 -723 6 -758 40 -296 363 -462 634 -325 111 56 208 194 225 320 12
82 10 1397 -2 1452 -15 74 -72 182 -122 232 -117 117 -275 156 -432 105z"/>
<path d="M4700 6541 c-86 -27 -139 -59 -197 -117 -61 -61 -108 -153 -121 -236
-4 -29 -7 -1250 -7 -2713 1 -2106 4 -2669 14 -2705 56 -201 216 -326 420 -328
167 -1 309 83 390 233 54 101 51 -79 51 2816 0 2932 4 2709 -57 2836 -84 175
-308 272 -493 214z"/>
<path d="M6008 6540 c-169 -53 -286 -182 -313 -347 -6 -40 -8 -1399 -1 -1443
18 -121 95 -241 196 -305 68 -43 150 -67 230 -67 41 0 87 5 103 11 15 6 27 8
27 5 0 -12 142 71 174 102 68 66 113 151 133 251 7 37 7 1354 0 1418 -12 100
-56 192 -125 262 -117 118 -274 160 -424 113z"/>
<path d="M2091 5234 c-159 -42 -279 -157 -325 -313 -14 -48 -16 -233 -16
-1823 0 -974 -2 -1773 -5 -1777 -2 -4 -208 -8 -457 -9 -249 -1 -466 -4 -483
-6 -122 -18 -259 -117 -316 -228 -47 -93 -61 -231 -32 -326 32 -108 122 -216
219 -265 51 -25 74 -32 140 -43 46 -8 1397 -9 1434 -1 102 21 179 59 239 119
76 76 116 154 129 253 8 65 7 3986 -1 4045 -24 175 -146 320 -312 372 -51 16
-157 17 -214 2z"/>
<path d="M3445 3933 c-133 -18 -265 -108 -327 -223 -73 -136 -69 -304 10 -435
148 -244 490 -282 685 -76 191 202 151 520 -84 672 -73 46 -198 74 -284 62z"/>
<path d="M6085 3934 c-179 -40 -284 -112 -348 -241 -49 -97 -48 -73 -49 -1399
0 -1459 0 -1481 18 -1540 22 -75 65 -143 122 -195 92 -84 170 -115 291 -117
130 -1 238 45 324 137 52 56 78 103 103 186 16 56 17 155 17 1400 0 737 -3
1358 -7 1380 -13 77 -28 120 -62 176 -76 127 -190 197 -339 212 -27 3 -59 3
-70 1z"/>
<path d="M3436 2618 c-181 -24 -338 -181 -365 -364 -12 -76 -11 -1402 1 -1463
28 -152 155 -290 307 -335 62 -18 182 -18 245 1 159 47 282 189 304 353 12 80
12 1381 1 1451 -13 80 -62 174 -123 234 -99 99 -231 143 -370 123z"/>
</g>
</svg>
