<?xml version="1.0" standalone="no"?>
<!DOCTYPE svg PUBLIC "-//W3C//DTD SVG 20010904//EN"
 "http://www.w3.org/TR/2001/REC-SVG-20010904/DTD/svg10.dtd">
<svg version="1.0" xmlns="http://www.w3.org/2000/svg"
 width="700.000000pt" height="700.000000pt" viewBox="0 0 700.000000 700.000000"
 preserveAspectRatio="xMidYMid meet">
<metadata>
Created by potrace 1.11, written by Peter Selinger 2001-2013
</metadata>
<g transform="translate(0.000000,700.000000) scale(0.100000,-0.100000)"
fill="#000000" stroke="none">
<path d="M442 6555 c-5 -7 -8 -4719 -3 -4792 1 -10 95 -13 436 -13 l435 0 1
43 c0 23 1 909 1 1968 l0 1927 637 0 c350 0 645 1 656 1 20 1 20 7 20 436 0
380 -2 435 -15 436 -8 0 -498 1 -1088 2 -707 1 -1076 -1 -1080 -8z"/>
<path d="M3070 6560 c-4 -3 -7 -495 -6 -1095 l1 -1090 436 0 436 0 0 1092 0
1093 -26 1 c-122 4 -835 3 -841 -1z"/>
<path d="M4387 6558 c-16 -10 -17 -6118 -2 -6119 14 -1 837 -1 853 0 9 1 12
620 12 3061 0 1683 -3 3060 -7 3061 -47 5 -848 2 -856 -3z"/>
<path d="M5690 6520 c-1 -56 -1 -2133 0 -2140 0 -8 858 -6 866 2 9 10 12 2156
2 2171 -4 7 -144 11 -437 11 l-431 1 0 -45z"/>
<path d="M1748 3283 l-3 -1968 -652 0 c-573 0 -653 -2 -654 -15 0 -8 -1 -203
-2 -433 0 -288 3 -421 10 -425 8 -5 2076 -8 2163 -3 13 1 15 273 14 2394 -1
1315 -2 2398 -3 2405 -1 9 -95 12 -436 12 l-435 0 -2 -1967z"/>
<path d="M3064 3501 l1 -436 435 0 435 0 0 435 0 435 -436 1 -436 1 1 -436z"/>
<path d="M5690 3916 c-1 -12 -1 -797 -2 -1745 0 -1150 3 -1726 10 -1730 13 -8
845 -6 858 1 7 5 11 3397 5 3484 -1 8 -129 11 -436 11 l-435 0 0 -21z"/>
<path d="M3063 1533 c0 -794 3 -1093 11 -1094 14 -1 826 -1 847 0 15 1 16 99
16 1091 0 996 -1 1090 -16 1091 -9 1 -205 2 -437 3 l-421 1 0 -1092z"/>
</g>
</svg>
